# xmcd CD database file
#
# Track frame offsets:
#	183
#	11833
#	43358
#	58533
#	82308
#	94008
#	127908
#	139608
#	157308
#	169458
#	186633
#
# Disc length: 2874 seconds
#
# Revision: 0
# Processed by: cddbd v1.4PL0 Copyright (c) Steve Scherf et al.
# Submitted via: CDex 1.51
#
DISCID=a50b380b
DTITLE=Ray Charles - Ray Charles in Paris
DYEAR=1900
DGENRE=Blues
TTITLE0=Let the good time roll
TTITLE1=Come rain or come shine
TTITLE2=Hallelujah, I love her so
TTITLE3=I'm gonna move to the outskirts of the town
TTITLE4=Margie
TTITLE5=Georgia on my mind
TTITLE6=Alexander's ragtime band
TTITLE7=I wonder
TTITLE8=Hit the road, Jack
TTITLE9=I believe to my soul
TTITLE10=What'd I say
EXTD=
EXTT0=
EXTT1=
EXTT2=
EXTT3=
EXTT4=
EXTT5=
EXTT6=
EXTT7=
EXTT8=
EXTT9=
EXTT10=
PLAYORDER=
